# xmcd
# 
# Track frame offsets:
#     182
#     32302
#     68530
#     117265
#     154792
#     183425
# 
# Disc length: 2677
# 
# Revision: 0
# Processed by: cddbd v1.5.2PL0 Copyright (c) Steve Scherf et al.
# Submitted via: BonkEnc v1.0.8
# 
DISCID=3f0a7306
DTITLE=Ellery Eskelin - Premonition
DYEAR=1993
DGENRE=Contemporary Jazz
TTITLE0=Solo #3 Premonition
TTITLE1=Solo #2 Song Cycle
TTITLE2=Solo #1 Phantasmagoria
TTITLE3=Boby and Soul
TTITLE4=Off Minor
TTITLE5=Besame Mucho
EXTD=
EXTT0=
EXTT1=
EXTT2=
EXTT3=
EXTT4=
EXTT5=
PLAYORDER=
